<?xml version="1.0" encoding="UTF-8"?>
<!DOCTYPE svg PUBLIC "-//W3C//DTD SVG 1.1//EN" "http://www.w3.org/Graphics/SVG/1.1/DTD/svg11.dtd">
<!-- Creator: CorelDRAW -->
<svg xmlns="http://www.w3.org/2000/svg" xml:space="preserve" width="84.6666mm" height="84.6666mm" version="1.1" style="shape-rendering:geometricPrecision; text-rendering:geometricPrecision; image-rendering:optimizeQuality; fill-rule:evenodd; clip-rule:evenodd"
viewBox="0 0 8466.66 8466.66"
 xmlns:xlink="http://www.w3.org/1999/xlink"
 xmlns:xodm="http://www.corel.com/coreldraw/odm/2003">
 <defs>
  <style type="text/css">
   <![CDATA[
    .fil1 {fill:#FFC461}
    .fil2 {fill:#FFC461}
    .fil0 {fill:black;fill-rule:nonzero}
   ]]>
  </style>
 </defs>
 <g id="Layer_x0020_1">
  <metadata id="CorelCorpID_0Corel-Layer"/>
  <g id="noun-graphic-design-6827631.svg">
   <g>
    <path class="fil0" d="M8350.91 1541.43l0 -275.17c0,-379.41 -308.55,-687.96 -687.96,-687.96l-6879.47 0c-379.41,0 -687.96,308.55 -687.96,687.96l0 2751.77c0.33,478.13 -0.34,1311.26 0,1788.62 0,379.4 308.55,687.96 687.96,687.96l2751.81 0c-9.99,635.31 -337.78,1183.32 -791.84,1086.27 -201.22,-45.76 -240.09,284.12 -33.71,289.61l3026.95 0c204.65,-4.82 169.57,-335.04 -33.72,-289.61 -453.69,96.65 -782.18,-450.96 -791.83,-1086.27l2751.81 0c379.41,0 687.96,-308.56 687.96,-687.96 -0.33,-40.24 0.33,-4079.88 0,-4265.32l0 0.1zm-7980.19 137.58l137.59 0 0 550.35 -137.59 0 0 -550.35zm0 825.55l137.59 0 0 550.34 -137.59 0 0 -550.34zm0 825.51l137.59 0 0 550.35 -137.59 0.03 0 -550.38zm0 825.55l137.59 0 0 550.34 -137.59 0 0 -550.34zm0 825.55l137.59 0 0 550.34 -137.59 0 0 -550.34zm4643.59 2614.22l-1582.3 0c231.51,-249.05 378.38,-645.99 378.38,-1100.72l825.55 0c0,454.73 147.23,851.67 378.37,1100.72zm3061.4 -2338.95l-687.93 0c-76.01,0 -137.59,-61.57 -137.59,-137.59l0 -3302.15c0,-76.02 61.58,-137.59 137.59,-137.59l687.93 0 0 3577.33zm0 -3852.53l-687.93 0c-227.71,0 -412.76,185.04 -412.76,412.76l0 3302.15c0,227.71 185.05,412.75 412.76,412.75l687.93 0.04 0 275.17c0,227.71 -185.05,412.76 -412.76,412.76l-6879.47 0c-227.71,0 -412.76,-185.05 -412.76,-412.76l275.17 0c76.02,0 137.59,-61.57 137.59,-137.59l0 -1651.06 0 -2476.6c0,-76.02 -61.57,-137.59 -137.59,-137.59l-275.17 -0.03 0 -137.59c0,-227.71 185.05,-412.75 412.76,-412.75l6879.47 0c227.71,0 412.76,185.04 412.76,412.75l0 137.59z"/>
    <path class="fil0" d="M881.19 1030.96c-134.16,-123.14 -317.84,62.27 -195.39,195.39 129.33,124.51 320.23,-66.03 195.39,-195.39z"/>
    <path class="fil0" d="M1310.46 1266.26c180.91,-2.76 180.91,-272.44 0,-275.17 -180.59,3.42 -180.59,271.74 0,275.17z"/>
    <path class="fil0" d="M2892.75 1266.26c180.92,-2.76 180.92,-272.44 0,-275.17 -180.58,3.42 -180.58,271.74 0,275.17z"/>
    <path class="fil0" d="M2365.74 1266.26c180.59,-3.43 180.59,-271.75 0,-275.17 -180.58,3.42 -180.58,271.74 0,275.17z"/>
    <path class="fil0" d="M3421.1 1266.26c180.58,-3.43 180.58,-271.75 0,-275.17 -180.92,2.76 -180.92,272.44 0,275.17z"/>
    <path class="fil0" d="M1838.8 1266.26c180.58,-3.43 180.58,-271.75 0,-275.17 -180.92,2.76 -180.92,272.44 0,275.17z"/>
    <path class="fil0" d="M4045.69 1030.96c-132.09,-123.84 -318.54,62.6 -195.39,195.39 129.33,125.21 319.9,-66.03 195.39,-195.39z"/>
    <path class="fil0" d="M7662.92 991.05c-180.59,3.43 -180.59,271.75 0,275.17 180.58,-3.42 180.58,-271.74 0,-275.17z"/>
    <path class="fil0" d="M7112.54 991.05c-180.58,3.43 -180.58,271.75 0,275.17 180.59,-3.42 180.59,-271.74 0,-275.17z"/>
    <path class="fil0" d="M7800.54 5944.3c180.58,-3.43 180.58,-271.75 0,-275.17 -180.59,3.42 -180.59,271.74 0,275.17z"/>
    <path class="fil0" d="M7250.19 5944.3c180.59,-3.43 180.59,-271.75 0,-275.17 -180.58,3.42 -180.58,271.74 0,275.17z"/>
    <path class="fil0" d="M6699.82 2351.8c-76.02,0 -137.59,61.57 -137.59,137.58l0 3042.13c0,76.01 -61.57,137.58 -137.58,137.58l-5090.76 0c-76.02,0 -137.59,-61.57 -137.59,-137.58l0 -3714.94c0,-76.02 61.57,-137.59 137.59,-137.59l3589.73 0c179.89,-2.06 181.29,-272.77 0,-275.17l-3589.73 -0.03c-227.72,0 -412.76,185.04 -412.76,412.75l0 3714.94c0,227.72 185.04,412.76 412.76,412.76l5090.76 0.07c227.71,0 412.75,-185.05 412.75,-412.76l0 -3042.12c0,-76.02 -61.57,-137.59 -137.58,-137.59l0 -0.03z"/>
    <path class="fil0" d="M4059.87 2796.61c-17.87,20.96 -27.16,47.12 -33.38,73.25l-97.35 875.77c-11.68,84.6 67.43,163.74 152.03,152.03l875.77 -97.35c28.55,-5.86 55.38,-17.21 77.74,-36.48 4.46,-3.09 1755.7,-1754.26 1755.7,-1754.26 20.97,-20.97 34.74,-48.5 38.87,-77.75 55.71,-388.69 -184.71,-651.82 -233.57,-700.34 -277.93,-277.93 -632.21,-243.19 -700.34,-233.57 -29.59,4.13 -56.74,17.87 -77.75,38.87 -8.25,13.08 -1753.23,1746.71 -1757.36,1760.09l-0.36 -0.26zm162.01 808.33l65 -586.11c240.79,25.09 471.6,139.64 522.49,520.78l-587.49 65.33zm1754.97 -2338.38c246.28,-7.22 581.32,135.19 584.42,583.02l-1505.95 1505.95c-132.1,-383.2 -303.03,-492.93 -584.06,-583.39l1505.59 -1505.58z"/>
    <path class="fil0" d="M2333.43 3754.58c-97.68,229.44 -30.29,346.39 43.7,404.17 135.88,115.22 341.23,14.78 445.8,-103.87 119.71,-100.78 308.55,-114.56 446.14,-40.24l11.35 639.8c2.06,114.19 4.82,271.05 88.06,403.14 169.57,235.97 427.23,287.92 685.9,310.95 295.8,12.71 511.83,-267.62 458.85,-574.11 -40.94,-297.2 -296.84,-500.48 -400.04,-760.18 -25.8,-71.55 -104.91,-108.36 -176.13,-82.54 -226.68,112.5 43,394.19 117.98,523.52 85.3,117.65 171.64,249.38 186.45,362.2 30.61,252.48 -156.49,295.48 -366.33,226.35 -237.33,-58.48 -331.59,-152.03 -319.21,-413.79l-12.71 -712.02c-0.7,-40.94 -19.93,-79.81 -51.95,-105.27 -271.38,-217.39 -690.36,-171.63 -923.56,80.84 123.14,-293.08 205.68,-602.66 215.66,-921.86 6.19,-148.27 -2.06,-363.57 -143.07,-517.7 -344.33,-350.15 -838.6,-64.33 -1092.1,217.73 -129,125.54 59.84,322.3 190.57,198.46 113.52,-109.03 230.8,-221.85 368.39,-274.51 266.92,-92.88 429.96,54.35 400.74,364.97 -11.01,267.61 -69.82,528.01 -174.73,773.93l0.24 0.03z"/>
   </g>
  </g>
  <path class="fil1" d="M370.72 5531.5l0 -550.34 137.58 0 0 550.34 -137.58 0zm412.75 137.68l0 -1651.05 0 -2476.6c0,-76.02 -61.56,-137.59 -137.58,-137.59l-275.17 -0.03 0 -137.59c0,-227.71 185.05,-412.75 412.75,-412.75l6879.48 0c227.72,0 412.75,185.04 412.75,412.75l0 137.59 -687.92 0c-227.72,0 -412.75,185.04 -412.75,412.75l0 3302.15c0,227.72 185.03,412.75 412.75,412.75l687.92 0.04 0 275.17c0,227.72 -185.03,412.76 -412.75,412.76l-6879.48 0c-227.7,0 -412.75,-185.04 -412.75,-412.76l275.17 0c76.02,0 137.58,-61.57 137.58,-137.59zm6466.73 -550.33l0 -3302.15c0,-76.03 61.56,-137.59 137.58,-137.59l687.92 0 0 3577.32 -687.92 0c-76.02,0 -137.58,-61.56 -137.58,-137.58zm1100.71 -3577.43l0 -275.17c0,-379.4 -308.55,-687.95 -687.96,-687.95l-6879.48 0c-379.4,0 -687.96,308.55 -687.96,687.95l0 2751.78c0.34,478.12 -0.32,1311.26 0,1788.62 0,379.4 308.56,687.97 687.96,687.97l2751.82 0c-9.98,635.29 -337.78,1183.31 -791.83,1086.26 -201.22,-45.76 -240.09,284.12 -33.72,289.62l3026.95 0c204.65,-4.83 169.57,-335.04 -33.71,-289.62 -453.7,96.64 -782.19,-450.97 -791.83,-1086.26l2751.8 0c379.41,0 687.96,-308.57 687.96,-687.97 -0.34,-40.24 0.34,-4079.88 0,-4265.23zm-7980.19 1513.48l0 -550.34 137.58 0 0 550.34 -137.58 0zm137.58 -825.55l-137.58 0 0 -550.33 137.58 0 0 550.33zm-137.58 1651.1l0 -550.39 137.58 0 0 550.35 -137.58 0.04zm0 825.5l0 -550.33 137.58 0 0 550.33 -137.58 0zm3439.67 1788.73l825.56 0c0,454.71 147.23,851.66 378.36,1100.72l-1582.3 0c231.5,-249.06 378.38,-646.01 378.38,-1100.72z"/>
  <path class="fil2" d="M4286.88 3018.82c240.79,25.1 471.6,139.64 522.49,520.8l-587.49 65.33 65 -586.13zm-357.74 726.81c-11.69,84.6 67.43,163.73 152.03,152.03l875.77 -97.34c28.55,-5.87 55.37,-17.22 77.74,-36.5 4.45,-3.09 1755.69,-1754.25 1755.69,-1754.25 20.98,-20.97 34.74,-48.49 38.88,-77.75 55.71,-388.7 -184.72,-651.82 -233.58,-700.34 -277.92,-277.93 -632.22,-243.19 -700.33,-233.58 -29.59,4.14 -56.74,17.88 -77.74,38.88 -8.27,13.08 -1753.24,1746.71 -1757.37,1760.09l-0.36 -0.27c-17.88,20.97 -27.16,47.13 -33.38,73.27l-97.35 875.76zm1126.17 -390.09c-132.09,-383.2 -303.02,-492.94 -584.05,-583.39l1505.59 -1505.59c246.28,-7.22 581.33,135.19 584.42,583.02l-1505.96 1505.96z"/>
  <path class="fil2" d="M3875.16 5063.77c-237.33,-58.48 -331.6,-152.02 -319.21,-413.78l-12.7 -712.02c-0.72,-40.94 -19.94,-79.81 -51.96,-105.28 -271.38,-217.4 -690.36,-171.64 -923.56,80.84 123.15,-293.08 205.68,-602.65 215.66,-921.86 6.2,-148.28 -2.05,-363.58 -143.08,-517.7 -344.31,-350.14 -838.59,-64.34 -1092.1,217.72 -128.98,125.56 59.84,322.31 190.57,198.46 113.52,-109.02 230.82,-221.84 368.4,-274.49 266.92,-92.9 429.97,54.33 400.74,364.97 -11.01,267.6 -69.82,527.99 -174.73,773.92l0.23 0.04c-97.68,229.43 -30.29,346.38 43.7,404.16 135.89,115.23 341.24,14.77 445.81,-103.88 119.71,-100.77 308.56,-114.55 446.14,-40.22l11.34 639.79c2.07,114.2 4.82,271.04 88.07,403.15 169.57,235.95 427.22,287.9 685.89,310.94 295.8,12.71 511.85,-267.62 458.86,-574.1 -40.93,-297.2 -296.83,-500.48 -400.05,-760.19 -25.79,-71.55 -104.9,-108.36 -176.11,-82.54 -226.69,112.49 43,394.2 117.97,523.53 85.3,117.65 171.63,249.37 186.44,362.2 30.63,252.46 -156.49,295.46 -366.32,226.34z"/>
  <path class="fil2" d="M1333.88 5669.09c-76,0 -137.59,-61.58 -137.59,-137.59l0 -3714.93c0,-76.02 61.59,-137.59 137.59,-137.59l3589.74 0c179.89,-2.06 181.28,-272.77 0,-275.18l-3589.74 -0.02c-227.7,0 -412.76,185.05 -412.76,412.75l0 3714.94c0,227.71 185.06,412.76 412.76,412.76l5090.77 0.06c227.72,0 412.76,-185.04 412.76,-412.76l0 -3042.12c0,-75.99 -61.58,-137.58 -137.58,-137.62 -76.02,0 -137.6,61.59 -137.6,137.59l0 3042.12c0,76.01 -61.56,137.59 -137.58,137.59l-5090.77 0z"/>
  <path class="fil2" d="M685.79 1226.35c129.34,124.51 320.24,-66.03 195.4,-195.4 -134.15,-123.13 -317.84,62.29 -195.4,195.4z"/>
  <path class="fil2" d="M1310.45 991.08c-180.58,3.44 -180.58,271.74 0,275.17 180.91,-2.75 180.91,-272.44 0,-275.17z"/>
  <path class="fil2" d="M1838.8 991.08c-180.93,2.76 -180.93,272.45 0,275.17 180.58,-3.43 180.58,-271.73 0,-275.17z"/>
  <path class="fil2" d="M2365.75 991.08c-180.58,3.44 -180.58,271.74 0,275.17 180.57,-3.43 180.57,-271.73 0,-275.17z"/>
  <path class="fil2" d="M2892.75 991.08c-180.58,3.44 -180.58,271.74 0,275.17 180.93,-2.75 180.93,-272.44 0,-275.17z"/>
  <path class="fil2" d="M3421.1 991.08c-180.92,2.76 -180.92,272.45 0,275.17 180.58,-3.43 180.58,-271.73 0,-275.17z"/>
  <path class="fil2" d="M4045.69 1030.95c-132.1,-123.84 -318.53,62.6 -195.39,195.4 129.32,125.22 319.9,-66.03 195.39,-195.4z"/>
  <path class="fil2" d="M7112.54 991.05c-180.59,3.43 -180.59,271.76 0,275.17 180.58,-3.41 180.58,-271.74 0,-275.17z"/>
  <path class="fil2" d="M7662.92 991.05c-180.59,3.43 -180.59,271.76 0,275.17 180.59,-3.41 180.59,-271.74 0,-275.17z"/>
  <path class="fil2" d="M7250.2 5669.12c-180.59,3.44 -180.59,271.75 0,275.17 180.58,-3.42 180.58,-271.73 0,-275.17z"/>
  <path class="fil2" d="M7800.53 5669.12c-180.58,3.44 -180.58,271.75 0,275.17 180.6,-3.42 180.6,-271.73 0,-275.17z"/>
 </g>
</svg>
