<?xml version="1.0" encoding="UTF-8"?>
<svg version="1.1" xmlns="http://www.w3.org/2000/svg" width="250" height="250">
<path d="M0 0 C82.5 0 165 0 250 0 C250 82.5 250 165 250 250 C167.5 250 85 250 0 250 C0 167.5 0 85 0 0 Z " fill="#1F2122" transform="translate(0,0)"/>
<path d="M0 0 C9.57 0 19.14 0 29 0 C31.6915625 5.8471875 31.6915625 5.8471875 34.4375 11.8125 C39.66053332 23.10687864 45.03841433 34.3192371 50.5 45.5 C56.14296856 57.05282899 61.65942083 68.64843928 67.03149414 80.33032227 C72.22407584 91.57754327 77.64568127 102.71074273 83.08984375 113.83789062 C87.1674419 122.17865469 91.15443628 130.54888333 95 139 C97.06000302 136.93999698 97.57828845 135.84118212 98.54614258 133.16357422 C98.83939926 132.36128891 99.13265594 131.5590036 99.43479919 130.73240662 C99.75151077 129.84875931 100.06822235 128.965112 100.39453125 128.0546875 C100.7340834 127.12225723 101.07363556 126.18982697 101.42347717 125.22914124 C102.16571478 123.18980538 102.90552802 121.14958594 103.64324951 119.10861206 C105.65473593 113.54576063 107.68549225 107.98994759 109.71484375 102.43359375 C110.14178528 101.26347244 110.56872681 100.09335114 111.00860596 98.88777161 C115.88525563 85.54148797 120.8757799 72.23825402 125.875 58.9375 C126.31924316 57.75492615 126.76348633 56.57235229 127.22119141 55.35394287 C129.36658544 49.64294089 131.51305866 43.93234607 133.66064453 38.22216797 C136.88412027 29.65043218 140.098344 21.07523353 143.3125 12.5 C144.859375 8.375 146.40625 4.25 148 0 C158.56 0 169.12 0 180 0 C180 0.66 180 1.32 180 2 C178.783125 2.20625 177.56625 2.4125 176.3125 2.625 C172.68481506 3.57999127 170.29227101 4.78333106 168.01880932 7.93014336 C163.80584883 16.4893743 163.56322634 26.46143638 163.62768555 35.80419922 C163.62403488 37.01095306 163.62038422 38.21770691 163.61662292 39.46102905 C163.60996853 42.72989484 163.61653981 45.99837894 163.62995505 49.26721334 C163.64140649 52.7168075 163.63715147 56.16638957 163.63520813 59.61599731 C163.63432919 65.40729667 163.64531922 71.19847808 163.66381836 76.98974609 C163.68495973 83.64545978 163.68849765 90.30100074 163.6822564 96.95674121 C163.67652164 103.40721998 163.6822577 109.85763912 163.69342995 116.30810928 C163.69802395 119.03098806 163.6989727 121.75382973 163.6968441 124.47671127 C162.06734239 148.97797619 162.06734239 148.97797619 170 171 C172.92892934 172.39111497 175.8408113 173.29120766 179 174 C179 174.66 179 175.32 179 176 C163.49 176 147.98 176 132 176 C132 175.34 132 174.68 132 174 C133.051875 173.773125 134.10375 173.54625 135.1875 173.3125 C139.25498211 172.11036966 141.42288316 170.46069975 144 167 C145.05290184 164.03691557 145.58154278 161.11113845 146 158 C146.17007065 156.74224258 146.3401413 155.48448517 146.5153656 154.18861389 C147.2039776 147.90256437 147.13157754 141.62703753 147.11352539 135.31030273 C147.11324281 133.94938662 147.11340264 132.58847035 147.1139679 131.22755432 C147.11425309 127.55876921 147.10840151 123.89001726 147.10139394 120.22123981 C147.09511392 116.37756188 147.09455294 112.53388307 147.09336853 108.69020081 C147.09026887 101.42313677 147.08207397 94.1560879 147.07201904 86.88903052 C147.06081539 78.61086774 147.05533676 70.33270422 147.05032361 62.05453575 C147.03989014 45.03634841 147.02231728 28.01817581 147 11 C145.57001479 14.62516427 144.14405683 18.2519003 142.71875 21.87890625 C142.31881836 22.89263306 141.91888672 23.90635986 141.50683594 24.95080566 C139.03908713 31.23726985 136.69423317 37.55046418 134.5 43.9375 C134.0203479 45.32364502 134.0203479 45.32364502 133.53100586 46.73779297 C133.28229736 47.46111816 133.03358887 48.18444336 132.77734375 48.9296875 C130.61215968 55.15955084 128.28399481 61.3255657 125.95556641 67.49584961 C122.40789539 76.89899154 118.90171534 86.31719134 115.40136719 95.73803711 C109.80558136 110.79634468 104.19703065 125.84985804 98.56207275 140.89355469 C97.89824309 142.66603704 97.234788 144.43865973 96.57171631 146.21142578 C95.65439597 148.66350591 94.73563066 151.11503938 93.81640625 153.56640625 C93.54426804 154.2944899 93.27212982 155.02257355 92.991745 155.77272034 C91.11462504 160.77074992 91.11462504 160.77074992 90 163 C87 162 87 162 85.59643555 159.60864258 C85.114729 158.54798584 84.63302246 157.4873291 84.13671875 156.39453125 C83.31204102 154.60112305 83.31204102 154.60112305 82.47070312 152.77148438 C81.87621971 151.45186002 81.28182104 150.13219749 80.6875 148.8125 C80.0642541 147.44936492 79.43988747 146.08674174 78.81445312 144.72460938 C77.51434857 141.89080616 76.21912497 139.05484722 74.92724609 136.21728516 C72.27828364 130.40843081 69.57124664 124.62693401 66.86364746 118.84524536 C65.40751556 115.73411408 63.95599036 112.62083451 62.50390625 109.5078125 C60.45308147 105.11278414 58.4015407 100.71809066 56.34934998 96.32369995 C48.76768374 80.08891286 41.20616249 63.84494643 33.66601562 47.59082031 C30.96881841 41.77745913 28.2697721 35.96495663 25.5708313 30.15240479 C24.1760534 27.14851241 22.7813905 24.14456666 21.38671875 21.140625 C20.92483154 20.14579102 20.46294434 19.15095703 19.98706055 18.12597656 C19.66133057 17.4244043 19.33560059 16.72283203 19 16 C18.67 19.3 18.34 22.6 18 26 C17.01 26 16.02 26 15 26 C14.97421875 25.31035156 14.9484375 24.62070312 14.921875 23.91015625 C14.52476379 17.33074554 13.62221646 11.62109846 10 6 C6.8483264 3.41401141 4.00699649 2.57242807 0 2 C0 1.34 0 0.68 0 0 Z " fill="#FBFBFB" transform="translate(36,33)"/>
<path d="M0 0 C1.98 0 3.96 0 6 0 C6.23074219 0.7734375 6.46148437 1.546875 6.69921875 2.34375 C9.97482626 12.80497874 13.51776642 20.32360401 23 26.25 C25.62437357 27.23414009 28.23006368 27.62228141 31 28 C31 28.66 31 29.32 31 30 C15.49 30 -0.02 30 -16 30 C-16 29.34 -16 28.68 -16 28 C-14.14375 27.6596875 -14.14375 27.6596875 -12.25 27.3125 C-9.16128666 26.52667894 -8.04508243 26.04152329 -5.625 23.8125 C-1.43396097 16.5587786 -1.06581245 8.17500826 0 0 Z " fill="#F9F9F9" transform="translate(52,179)"/>
<path d="M0 0 C0.99 0.33 1.98 0.66 3 1 C3 1.66 3 2.32 3 3 C2.34 3 1.68 3 1 3 C0.86803223 3.73468506 0.73606445 4.46937012 0.60009766 5.22631836 C0.05308105 7.75465671 -0.65776982 9.97679133 -1.6015625 12.37890625 C-1.92310303 13.20688721 -2.24464355 14.03486816 -2.57592773 14.88793945 C-2.92212158 15.77054443 -3.26831543 16.65314941 -3.625 17.5625 C-6.35098275 24.60731859 -8.97771257 31.67039073 -11.4375 38.8125 C-14.17899448 46.73941497 -17.06589682 54.60176563 -20.02661133 62.44921875 C-23.73482377 72.27847431 -27.40422978 82.12193315 -31.06692505 91.9682312 C-32.09492451 94.73165243 -33.12348512 97.49486429 -34.15209961 100.25805664 C-38.45819912 111.8301013 -42.73875322 123.41136606 -47 135 C-47.66 134.67 -48.32 134.34 -49 134 C-46.41110788 124.60685581 -42.98794438 115.51019501 -39.625 106.375 C-38.9743585 104.60140221 -38.32372393 102.82780188 -37.6730957 101.05419922 C-31.06534031 83.07296103 -24.33101016 65.13876835 -17.58642578 47.20849609 C-11.67472596 31.49038428 -5.81731011 15.75327343 0 0 Z " fill="#D8D9D9" transform="translate(182,38)"/>
<path d="M0 0 C0.87128265 3.13809428 1.31042872 6.19741578 1.625 9.4375 C1.72039063 10.36433594 1.81578125 11.29117188 1.9140625 12.24609375 C2.00041742 15.01337628 1.58212123 17.3065343 1 20 C1.165 20.66 1.33 21.32 1.5 22 C2.14358261 24.57433043 1.63609042 26.4556383 1 29 C-0.5 27.6875 -0.5 27.6875 -2 26 C-2 25.01 -2 24.02 -2 23 C-1.34 23 -0.68 23 0 23 C-0.33 21.906875 -0.66 20.81375 -1 19.6875 C-2 16 -2 16 -2 13 C-1.34 13 -0.68 13 0 13 C-0.99 9.37 -1.98 5.74 -3 2 C-2.34 2 -1.68 2 -1 2 C-0.67 1.34 -0.34 0.68 0 0 Z " fill="#9B9C9C" transform="translate(54,116)"/>
<path d="M0 0 C3.31182578 1.43858153 5.43293387 3.21994486 7.93359375 5.80859375 C8.66513672 6.55560547 9.39667969 7.30261719 10.15039062 8.07226562 C11.67129064 9.64511782 13.19212431 11.21803416 14.71289062 12.79101562 C15.44572266 13.53931641 16.17855469 14.28761719 16.93359375 15.05859375 C17.9244397 16.08424438 17.9244397 16.08424438 18.93530273 17.13061523 C21.14022481 19.12696008 23.40815831 20.55320066 26 22 C25.67 20.68 25.34 19.36 25 18 C26.5 19.25 26.5 19.25 28 21 C28 22.32 28 23.64 28 25 C19.07689939 21.93661159 12.45401766 13.53307983 5.875 7 C5.29427734 6.42403076 4.71355469 5.84806152 4.11523438 5.25463867 C0 1.1226908 0 1.1226908 0 0 Z " fill="#D1D1D2" transform="translate(26,136)"/>
<path d="M0 0 C0.68620031 1.32338632 1.34786461 2.65949948 2 4 C2.55300781 5.05574219 2.55300781 5.05574219 3.1171875 6.1328125 C4.29552874 9.95981456 3.81238005 13.30356278 3.25 17.1875 C3.11851563 18.27321289 3.11851563 18.27321289 2.984375 19.38085938 C2.2675047 24.7324953 2.2675047 24.7324953 0 27 C0.01160156 26.32453125 0.02320313 25.6490625 0.03515625 24.953125 C0.04417969 24.06109375 0.05320313 23.1690625 0.0625 22.25 C0.07990234 20.92742187 0.07990234 20.92742187 0.09765625 19.578125 C0.00775819 17.20481623 -0.39170256 15.27991796 -1 13 C-1 10 -1 10 0 7 C-0.33 6.01 -0.66 5.02 -1 4 C-0.5625 1.8125 -0.5625 1.8125 0 0 Z " fill="#B0B1B1" transform="translate(52,71)"/>
<path d="M0 0 C3.31460693 1.10486898 3.96976106 1.87623086 6.125 4.5 C11.85957388 11.252976 18.06191225 17.48510974 25 23 C20.7742937 23 19.01922973 20.58228496 16.125 17.8125 C15.34962891 17.08836914 15.34962891 17.08836914 14.55859375 16.34960938 C9.38101799 11.49155656 4.42332898 6.56075644 0 1 C0 0.67 0 0.34 0 0 Z " fill="#B3B4B5" transform="translate(36,132)"/>
<path d="M0 0 C3.50602742 0.58046812 5.20849502 1.80123031 7.6875 4.3125 C8.59048828 5.20388672 8.59048828 5.20388672 9.51171875 6.11328125 C11.08578165 8.10874682 11.58891824 9.51706615 12 12 C11.34 12 10.68 12 10 12 C10 11.34 10 10.68 10 10 C9.34 10 8.68 10 8 10 C6.30859375 8.3203125 6.30859375 8.3203125 4.4375 6.125 C3.50744141 5.04605469 3.50744141 5.04605469 2.55859375 3.9453125 C1 2 1 2 0 0 Z " fill="#5B5C5D" transform="translate(32,145)"/>
<path d="M0 0 C3.11198065 1.49836105 6.0534615 3.19933758 9 5 C8.67 3.68 8.34 2.36 8 1 C9.5 2.25 9.5 2.25 11 4 C11 5.32 11 6.64 11 8 C6.40378078 6.5129879 3.53027653 4.20187872 0 1 C0 0.67 0 0.34 0 0 Z " fill="#AFAFB0" transform="translate(43,153)"/>
<path d="M0 0 C0.66 0.99 1.32 1.98 2 3 C1.3203125 5.69921875 1.3203125 5.69921875 0.125 8.6875 C-0.26429688 9.68136719 -0.65359375 10.67523438 -1.0546875 11.69921875 C-1.52261719 12.83810547 -1.52261719 12.83810547 -2 14 C-2.66 13.67 -3.32 13.34 -4 13 C-3.52140759 11.39566191 -3.04210442 9.79153584 -2.5625 8.1875 C-2.29566406 7.29417969 -2.02882812 6.40085938 -1.75390625 5.48046875 C-1.19612127 3.64526945 -0.60655425 1.81966274 0 0 Z " fill="#D5D5D6" transform="translate(145,137)"/>
<path d="M0 0 C3.33717549 1.3809002 5.22301036 2.8201238 7 6 C6.57421875 8.1328125 6.57421875 8.1328125 6 10 C4.99723227 8.52270825 3.99785546 7.04311423 3 5.5625 C2.443125 4.73878906 1.88625 3.91507813 1.3125 3.06640625 C0 1 0 1 0 0 Z " fill="#696B6B" transform="translate(43,142)"/>
<path d="M0 0 C1.32 0.33 2.64 0.66 4 1 C3.88610125 2.79240663 3.75852313 4.58394835 3.625 6.375 C3.52058594 7.87160156 3.52058594 7.87160156 3.4140625 9.3984375 C3 12 3 12 1 14 C1.01160156 13.32453125 1.02320313 12.6490625 1.03515625 11.953125 C1.04417969 11.06109375 1.05320313 10.1690625 1.0625 9.25 C1.07990234 7.92742187 1.07990234 7.92742187 1.09765625 6.578125 C1.00826198 4.2181162 0.66912821 2.25501476 0 0 Z " fill="#A3A4A4" transform="translate(51,84)"/>
<path d="M0 0 C2 3 2 3 1.7578125 5.26171875 C1.54898438 6.06222656 1.34015625 6.86273438 1.125 7.6875 C0.92132813 8.49574219 0.71765625 9.30398437 0.5078125 10.13671875 C0.25644531 11.05904297 0.25644531 11.05904297 0 12 C-1.4606285 9.35261084 -2 8.10551666 -2 5 C-1.34 4.67 -0.68 4.34 0 4 C0 2.68 0 1.36 0 0 Z " fill="#ABABAC" transform="translate(54,104)"/>
<path d="M0 0 C0.82638376 2.89234315 1 4.88742431 1 8 C0.34 8 -0.32 8 -1 8 C-1.66 6.02 -2.32 4.04 -3 2 C-2.34 2 -1.68 2 -1 2 C-0.67 1.34 -0.34 0.68 0 0 Z " fill="#B1B1B2" transform="translate(54,116)"/>
<path d="M0 0 C0.99 0.33 1.98 0.66 3 1 C3 1.99 3 2.98 3 4 C2.34 4 1.68 4 1 4 C0.67 4.66 0.34 5.32 0 6 C-0.66 4.35 -1.32 2.7 -2 1 C-1.34 0.67 -0.68 0.34 0 0 Z " fill="#8A8B8C" transform="translate(53,98)"/>
</svg>
